<svg width="119.08001708984375px" height="129.239990234375px" xmlns="http://www.w3.org/2000/svg" viewBox="190.45999145507812 10.3800048828125 119.08001708984375 129.239990234375" style="background: rgba(0, 0, 0, 0) none repeat scroll 0% 0%;" preserveAspectRatio="xMidYMid"><defs><filter id="editing-extrusion" x="-100%" y="-100%" width="300%" height="300%"><feFlood result="color1" flood-color="#444"></feFlood><feConvolveMatrix order="8,8" divisor="1" kernelMatrix="1 0 0 0 0 0 0 0 0 1 0 0 0 0 0 0 0 0 1 0 0 0 0 0 0 0 0 1 0 0 0 0 0 0 0 0 1 0 0 0 0 0 0 0 0 1 0 0 0 0 0 0 0 0 1 0 0 0 0 0 0 0 0 1" in="SourceAlpha" result="extrude"></feConvolveMatrix><feComposite in="color1" in2="extrude" result="comp-extrude" operator="in"></feComposite><feOffset dx="4" dy="4" in="comp-extrude" result="offset-extrude"></feOffset><feMerge><feMergeNode in="offset-extrude"></feMergeNode><feMergeNode in="SourceGraphic"></feMergeNode></feMerge></filter></defs><g filter="url(#editing-extrusion)"><g transform="translate(215.15499740839005, 99.09500122070312)"><path d="M18.56-36.67L18.56-36.67L18.56-36.67Q13.50-30.34 11.26-24L11.26-24L11.33-24L11.33-24Q20.22-24 21.54-23.97L21.54-23.97L21.54-23.97Q22.85-23.94 22.98-24.06L22.98-24.06L22.98-24.06Q23.10-24.19 23.17-24.38L23.17-24.38L23.17-24.38Q22.08-32.26 21.44-35.10L21.44-35.10L21.44-35.10Q20.80-37.95 20.16-37.95L20.16-37.95L20.16-37.95Q19.52-37.95 18.56-36.67ZM12.86-6.53L12.86-6.53L14.27-6.78L14.27-6.78Q14.91-6.78 14.91-6.08L14.91-6.08L14.91-6.08Q14.91-3.84 14.02-2.30L14.02-2.30L14.02-2.30Q13.12-0.77 11.78-0.13L11.78-0.13L11.78-0.13Q9.60 0.96 8.06 0.96L8.06 0.96L8.06 0.96Q5.12 0.96 3.65-1.25L3.65-1.25L3.65-1.25Q2.18-3.46 2.18-7.90L2.18-7.90L2.18-7.90Q2.18-12.35 4.61-19.46L4.61-19.46L0.90-19.46L0.90-19.46Q0.19-19.46 0.19-20.16L0.19-20.16L0.19-20.16Q0.19-20.86 1.28-22.43L1.28-22.43L1.28-22.43Q2.37-24 3.58-24L3.58-24L6.46-24L6.46-24Q11.01-34.11 17.15-41.47L17.15-41.47L17.15-41.47Q18.75-43.39 21.09-45.06L21.09-45.06L21.09-45.06Q23.42-46.72 24.70-46.72L24.70-46.72L24.70-46.72Q25.98-46.72 26.62-45.57L26.62-45.57L26.62-45.57Q28.29-42.88 30.53-25.92L30.53-25.92L30.53-25.92Q31.30-18.62 33.18-10.85L33.18-10.85L33.18-10.85Q35.07-3.07 36.67-1.79L36.67-1.79L36.67-1.79Q37.06-1.54 37.06-1.15L37.06-1.15L37.06-1.15Q37.06-0.19 34.34 0.64L34.34 0.64L34.34 0.64Q31.62 1.47 30.18 1.47L30.18 1.47L30.18 1.47Q28.74 1.47 27.97 1.12L27.97 1.12L27.97 1.12Q27.20 0.77 27.01 0.38L27.01 0.38L27.01 0.38Q25.86-2.11 24.70-11.52L24.70-11.52L24.32-14.53L24.32-14.53Q24.06-17.54 23.81-19.07L23.81-19.07L23.36-19.39L9.98-19.46L9.98-19.46Q9.22-16.19 9.22-13.76L9.22-13.76L9.22-13.76Q9.22-11.33 9.38-10.21L9.38-10.21L9.38-10.21Q9.54-9.09 10.43-7.81L10.43-7.81L10.43-7.81Q11.33-6.53 12.86-6.53ZM60.93-12.74L60.80-18.82L60.80-18.82Q60.80-20.29 59.01-20.42L59.01-20.42L54.46-20.42L54.46-20.42Q53.95-20.42 53.95-20.74L53.95-20.74L53.95-20.74Q54.34-22.59 55.30-23.71L55.30-23.71L55.30-23.71Q56.26-24.83 56.90-24.96L56.90-24.96L56.90-24.96Q58.69-25.22 62.78-25.22L62.78-25.22L62.78-25.22Q66.88-25.22 67.90-25.18L67.90-25.18L67.90-25.18Q68.93-25.15 69.18-24.96L69.18-24.96L69.18-24.96Q69.44-24.64 69.44-24.22L69.44-24.22L69.44-24.22Q69.44-23.81 69.22-18.91L69.22-18.91L69.22-18.91Q68.99-14.02 68.99-10.14L68.99-10.14L68.99-10.14Q68.99-6.27 69.25-5.28L69.25-5.28L69.25-5.28Q69.50-4.29 69.50-4.03L69.50-4.03L69.50-4.03Q69.50-3.01 67.71-1.82L67.71-1.82L67.71-1.82Q65.92-0.64 62.30 0.26L62.30 0.26L62.30 0.26Q58.69 1.15 54.34 1.15L54.34 1.15L54.34 1.15Q48.51 1.15 44.22-2.88L44.22-2.88L44.22-2.88Q40.90-6.08 39.65-9.86L39.65-9.86L39.65-9.86Q38.40-13.63 38.40-20.48L38.40-20.48L38.40-20.48Q38.40-45.89 57.02-45.89L57.02-45.89L57.02-45.89Q60.16-45.89 62.66-45.22L62.66-45.22L62.66-45.22Q65.15-44.54 67.04-42.59L67.04-42.59L67.04-42.59Q68.93-40.64 68.93-37.57L68.93-37.57L68.93-37.57Q68.93-35.97 68.29-34.30L68.29-34.30L68.29-34.30Q67.14-30.91 63.17-30.91L63.17-30.91L63.17-30.91Q60.99-30.91 59.87-32.03L59.87-32.03L59.87-32.03Q58.75-33.15 58.75-35.14L58.75-35.14L58.75-35.14Q58.75-35.90 59.58-36.10L59.58-36.10L59.58-36.10Q60.80-36.80 60.80-38.50L60.80-38.50L60.80-38.50Q60.80-40.19 59.52-41.12L59.52-41.12L59.52-41.12Q58.24-42.05 56.83-42.05L56.83-42.05L56.83-42.05Q53.76-42.05 51.65-39.84L51.65-39.84L51.65-39.84Q49.54-37.63 48.58-34.05L48.58-34.05L48.58-34.05Q46.98-27.65 46.98-20.99L46.98-20.99L46.98-20.99Q46.98-10.11 52.29-6.53L52.29-6.53L52.29-6.53Q54.27-5.12 56.45-5.12L56.45-5.12L56.45-5.12Q60.48-5.12 60.74-6.59L60.74-6.59L60.74-6.59Q60.93-8.58 60.93-12.74L60.93-12.74Z" fill="#ccc"></path></g></g><style>text {
  font-size: 64px;
  font-family: Arial Black;
  dominant-baseline: central;
  text-anchor: middle;
}</style></svg>